<svg width="771" height="771" viewBox="0 0 771 771" fill="none" xmlns="http://www.w3.org/2000/svg">
<circle cx="385.5" cy="385.5" r="385.5" fill="#7360F2"/>
<path d="M588.807 171.353C575.553 159.124 521.995 120.244 402.697 119.716C402.697 119.716 262.014 111.232 193.434 174.139C155.258 212.323 141.828 268.194 140.412 337.463C138.995 406.732 137.162 536.546 262.295 571.745H262.415L262.335 625.455C262.335 625.455 261.534 647.2 275.852 651.634C293.171 657.013 303.336 640.486 319.871 622.67C328.946 612.89 341.48 598.524 350.924 587.543C436.503 594.746 502.323 578.284 509.798 575.851C527.077 570.248 624.854 557.723 640.757 427.917C657.172 294.125 632.817 209.497 588.807 171.353V171.353Z" fill="white"/>
<path d="M560.979 198.381C549.775 188.201 501.411 157.812 400.496 157.372C400.496 157.372 280.998 149.52 222.99 202.062C190.705 233.94 179.828 281.343 178.636 339.192C177.443 397.04 171.265 507.55 277.077 536.946C277.077 536.946 276.661 618.989 276.613 626.2C276.613 631.242 277.413 634.691 280.294 635.403C282.367 635.908 285.472 634.835 288.113 632.202C305.032 615.211 359.199 549.864 359.199 549.864C431.877 554.61 489.702 540.26 495.92 538.227C510.582 533.513 589.887 526.702 603.309 418.289C617.179 306.538 598.211 230.258 560.979 198.381V198.381Z" fill="#7360F2"/>
<path d="M451.806 334.438C450.493 307.979 437.053 294.082 411.485 292.748" stroke="white" stroke-width="13.4936" stroke-linecap="round" stroke-linejoin="round"/>
<path d="M486.42 346.043C486.954 321.392 479.652 300.797 464.515 284.257C449.309 267.658 428.26 258.518 401.249 256.541" stroke="white" stroke-width="13.4936" stroke-linecap="round" stroke-linejoin="round"/>
<path d="M521.859 359.904C521.534 317.129 508.752 283.44 483.515 258.838C458.278 234.236 426.891 221.804 389.356 221.542" stroke="white" stroke-width="13.4936" stroke-linecap="round" stroke-linejoin="round"/>
<path d="M412.821 424.803C412.821 424.803 422.305 425.604 427.412 419.313L437.368 406.788C442.17 400.577 453.759 396.616 465.107 402.938C473.612 407.789 481.868 413.061 489.846 418.737C497.377 424.275 512.799 437.145 512.847 437.145C520.194 443.347 521.891 452.455 516.889 462.059C516.889 462.115 516.849 462.211 516.849 462.259C511.34 471.81 504.345 480.422 496.128 487.774C496.032 487.822 496.032 487.87 495.944 487.918C488.805 493.883 481.792 497.274 474.903 498.09C473.889 498.268 472.859 498.332 471.83 498.282C468.793 498.311 465.771 497.847 462.882 496.906L462.658 496.577C452.046 493.584 434.326 486.093 404.818 469.814C387.742 460.505 371.485 449.766 356.222 437.713C348.571 431.675 341.274 425.203 334.365 418.329L333.628 417.592L332.892 416.856L332.156 416.12C331.908 415.88 331.668 415.632 331.419 415.383C324.545 408.475 318.073 401.177 312.035 393.526C299.984 378.264 289.245 362.01 279.934 344.938C263.655 315.422 256.164 297.718 253.171 287.09L252.843 286.866C251.904 283.977 251.442 280.955 251.474 277.918C251.418 276.89 251.48 275.859 251.658 274.845C252.517 267.967 255.913 260.948 261.846 253.788C261.894 253.7 261.942 253.7 261.99 253.604C269.34 245.387 277.953 238.395 287.505 232.891C287.553 232.891 287.649 232.843 287.705 232.843C297.309 227.841 306.417 229.538 312.612 236.845C312.66 236.893 325.505 252.315 331.019 259.846C336.696 267.832 341.968 276.096 346.818 284.609C353.141 295.95 349.179 307.562 342.968 312.348L330.443 322.305C324.12 327.411 324.953 336.895 324.953 336.895C324.953 336.895 343.505 407.108 412.821 424.803V424.803Z" fill="white"/>
</svg>
